ffmpeg started on 2026-01-19 at 14:50:46
Report written to "D:\Convert\FFMetrics\reports\psnr_report-6.txt"
Log level: 32
Command line:
ffmpeg -hide_banner -nostdin -r 24000/1001 -i "F:\\Convert\\files\\[DC] Make Heroine ga Oosugiru - 07_Telegram_HEVC(184).mkv" -r 24000/1001 -i "F:\\Convert\\files\\[DC] Make Heroine ga Oosugiru - 07_Telegram.mp4" -lavfi "[0:v]settb=AVTB,setpts=PTS-STARTPTS,format=pix_fmts=yuv420p10le,fps=24000/1001,scale=1920:1080:flags=lanczos:param0=3:out_range=limited:out_color_matrix=bt709:out_chroma_loc=left,setsar=1/1,setdar=(1920/1080)*(1/1),colorspace=format=yuv420p10:range=tv:primaries=bt709:trc=bt709:space=bt709:fast=0[main];[1:v]settb=AVTB,setpts=PTS-STARTPTS,format=pix_fmts=yuv420p,fps=24000/1001,scale=1920:1080:flags=lanczos:param0=3:out_range=limited:out_color_matrix=bt709:out_chroma_loc=left,setsar=1.000,setdar=1.778,colorspace=format=yuv420p:range=tv:primaries=bt709:trc=bt709:space=bt709:fast=0[ref];[main][ref]psnr=eof_action=endall:stats_file='D\\:/Convert/FFMetrics/logs/psnr_logfile-6.txt'" -f null -
Input #0, matroska,webm, from 'F:\Convert\files\[DC] Make Heroine ga Oosugiru - 07_Telegram_HEVC(184).mkv':
  Metadata:
    COMPATIBLE_BRANDS: isomiso2avc1mp41
    MAJOR_BRAND     : isom
    MINOR_VERSION   : 512
    ENCODER         : Lavf61.7.100
  Duration: 00:24:06.79, start: -0.021000, bitrate: 991 kb/s
  Stream #0:0: Video: hevc (Main 10), yuv420p10le(tv, bt709, progressive), 1920x1080 [SAR 1:1 DAR 16:9], 23.98 fps, 23.98 tbr, 1k tbn (default)
      Metadata:
        HANDLER_NAME    : VideoHandler
        VENDOR_ID       : [0][0][0][0]
        ENCODER         : Lavc61.19.100 libx265
        BPS             : 794190
        DURATION        : 00:24:06.569708333
        NUMBER_OF_FRAMES: 34683
        NUMBER_OF_BYTES : 143606490
        _STATISTICS_WRITING_APP: mkvpropedit v94.0 ('Initiate') 64-bit
        _STATISTICS_WRITING_DATE_UTC: 2026-01-19 10:19:21
        _STATISTICS_TAGS: BPS DURATION NUMBER_OF_FRAMES NUMBER_OF_BYTES
  Stream #0:1: Audio: aac (LC), 48000 Hz, stereo, fltp (default)
      Metadata:
        HANDLER_NAME    : SoundHandler
        VENDOR_ID       : [0][0][0][0]
        ENCODER         : Lavc61.19.100 aac
        BPS             : 193194
        DURATION        : 00:24:06.784000000
        NUMBER_OF_FRAMES: 67819
        NUMBER_OF_BYTES : 34938755
        _STATISTICS_WRITING_APP: mkvpropedit v94.0 ('Initiate') 64-bit
        _STATISTICS_WRITING_DATE_UTC: 2026-01-19 10:19:21
        _STATISTICS_TAGS: BPS DURATION NUMBER_OF_FRAMES NUMBER_OF_BYTES
Input #1, mov,mp4,m4a,3gp,3g2,mj2, from 'F:\Convert\files\[DC] Make Heroine ga Oosugiru - 07_Telegram.mp4':
  Metadata:
    major_brand     : isom
    minor_version   : 512
    compatible_brands: isomiso2avc1mp41
    encoder         : Lavf60.16.100
  Duration: 00:24:06.74, start: 0.000000, bitrate: 3764 kb/s
  Stream #1:0[0x1](und): Video: h264 (High) (avc1 / 0x31637661), yuv420p(tv, bt709, progressive), 1920x1080 [SAR 1:1 DAR 16:9], 3616 kb/s, 23.98 fps, 23.98 tbr, 24k tbn (default)
      Metadata:
        handler_name    : VideoHandler
        vendor_id       : [0][0][0][0]
        encoder         : Lavc60.31.102 h264_qsv
  Stream #1:1[0x2](und): Audio: aac (HE-AACv2) (mp4a / 0x6134706D), 48000 Hz, stereo, fltp, 144 kb/s (default)
      Metadata:
        handler_name    : SoundHandler
        vendor_id       : [0][0][0][0]
Stream mapping:
  Stream #0:0 (hevc) -> settb:default
  Stream #1:0 (h264) -> settb:default
  psnr:default -> Stream #0:0 (wrapped_avframe)
  Stream #0:1 -> #0:1 (aac (native) -> pcm_s16le (native))
Output #0, null, to 'pipe:':
  Metadata:
    COMPATIBLE_BRANDS: isomiso2avc1mp41
    MAJOR_BRAND     : isom
    MINOR_VERSION   : 512
    encoder         : Lavf61.7.100
  Stream #0:0: Video: wrapped_avframe, yuv420p10le(tv, bt709, progressive), 1920x1080 [SAR 1:1 DAR 16:9], q=2-31, 200 kb/s, 23.98 fps, 23.98 tbn
      Metadata:
        encoder         : Lavc61.19.100 wrapped_avframe
  Stream #0:1: Audio: pcm_s16le, 48000 Hz, stereo, s16, 1536 kb/s (default)
      Metadata:
        HANDLER_NAME    : SoundHandler
        VENDOR_ID       : [0][0][0][0]
        _STATISTICS_TAGS: BPS DURATION NUMBER_OF_FRAMES NUMBER_OF_BYTES
        BPS             : 193194
        DURATION        : 00:24:06.784000000
        NUMBER_OF_FRAMES: 67819
        NUMBER_OF_BYTES : 34938755
        _STATISTICS_WRITING_APP: mkvpropedit v94.0 ('Initiate') 64-bit
        _STATISTICS_WRITING_DATE_UTC: 2026-01-19 10:19:21
        encoder         : Lavc61.19.100 pcm_s16le
frame=  126 fps=0.0 q=-0.0 size=N/A time=00:00:05.25 bitrate=N/A speed=10.3x    frame=  324 fps=312 q=-0.0 size=N/A time=00:00:13.51 bitrate=N/A speed=  13x    frame=  516 fps=333 q=-0.0 size=N/A time=00:00:21.52 bitrate=N/A speed=13.9x    frame=  706 fps=342 q=-0.0 size=N/A time=00:00:29.44 bitrate=N/A speed=14.3x    frame=  889 fps=345 q=-0.0 size=N/A time=00:00:37.07 bitrate=N/A speed=14.4x    frame= 1026 fps=331 q=-0.0 size=N/A time=00:00:42.79 bitrate=N/A speed=13.8x    frame= 1183 fps=328 q=-0.0 size=N/A time=00:00:49.34 bitrate=N/A speed=13.7x    frame= 1342 fps=326 q=-0.0 size=N/A time=00:00:55.97 bitrate=N/A speed=13.6x    frame= 1500 fps=323 q=-0.0 size=N/A time=00:01:02.56 bitrate=N/A speed=13.5x    frame= 1637 fps=317 q=-0.0 size=N/A time=00:01:08.27 bitrate=N/A speed=13.2x    frame= 1790 fps=315 q=-0.0 size=N/A time=00:01:14.65 bitrate=N/A speed=13.1x    frame= 1934 fps=313 q=-0.0 size=N/A time=00:01:20.66 bitrate=N/A speed=  13x    frame= 2071 fps=309 q=-0.0 size=N/A time=00:01:26.37 bitrate=N/A speed=12.9x    frame= 2199 fps=305 q=-0.0 size=N/A time=00:01:31.71 bitrate=N/A speed=12.7x    frame= 2347 fps=304 q=-0.0 size=N/A time=00:01:37.88 bitrate=N/A speed=12.7x    frame= 2478 fps=300 q=-0.0 size=N/A time=00:01:43.35 bitrate=N/A speed=12.5x    frame= 2625 fps=299 q=-0.0 size=N/A time=00:01:49.48 bitrate=N/A speed=12.5x    frame= 2803 fps=302 q=-0.0 size=N/A time=00:01:56.90 bitrate=N/A speed=12.6x    frame= 2974 fps=303 q=-0.0 size=N/A time=00:02:04.04 bitrate=N/A speed=12.6x    frame= 3173 fps=307 q=-0.0 size=N/A time=00:02:12.34 bitrate=N/A speed=12.8x    frame= 3370 fps=311 q=-0.0 size=N/A time=00:02:20.55 bitrate=N/A speed=  13x    frame= 3561 fps=314 q=-0.0 size=N/A time=00:02:28.52 bitrate=N/A speed=13.1x    frame= 3757 fps=316 q=-0.0 size=N/A time=00:02:36.69 bitrate=N/A speed=13.2x    frame= 3938 fps=318 q=-0.0 size=N/A time=00:02:44.24 bitrate=N/A speed=13.3x    frame= 4123 fps=320 q=-0.0 size=N/A time=00:02:51.96 bitrate=N/A speed=13.3x    frame= 4319 fps=322 q=-0.0 size=N/A time=00:03:00.13 bitrate=N/A speed=13.4x    frame= 4505 fps=323 q=-0.0 size=N/A time=00:03:07.89 bitrate=N/A speed=13.5x    frame= 4697 fps=325 q=-0.0 size=N/A time=00:03:15.90 bitrate=N/A speed=13.6x    frame= 4887 fps=326 q=-0.0 size=N/A time=00:03:23.82 bitrate=N/A speed=13.6x    frame= 5080 fps=328 q=-0.0 size=N/A time=00:03:31.87 bitrate=N/A speed=13.7x    frame= 5265 fps=329 q=-0.0 size=N/A time=00:03:39.59 bitrate=N/A speed=13.7x    frame= 5453 fps=330 q=-0.0 size=N/A time=00:03:47.43 bitrate=N/A speed=13.8x    frame= 5649 fps=332 q=-0.0 size=N/A time=00:03:55.61 bitrate=N/A speed=13.8x    frame= 5830 fps=332 q=-0.0 size=N/A time=00:04:03.15 bitrate=N/A speed=13.9x    frame= 6026 fps=333 q=-0.0 size=N/A time=00:04:11.33 bitrate=N/A speed=13.9x    frame= 6212 fps=334 q=-0.0 size=N/A time=00:04:19.09 bitrate=N/A speed=13.9x    frame= 6399 fps=335 q=-0.0 size=N/A time=00:04:26.89 bitrate=N/A speed=  14x    frame= 6591 fps=336 q=-0.0 size=N/A time=00:04:34.89 bitrate=N/A speed=  14x    frame= 6776 fps=337 q=-0.0 size=N/A time=00:04:42.61 bitrate=N/A speed=  14x    frame= 6953 fps=337 q=-0.0 size=N/A time=00:04:49.99 bitrate=N/A speed=14.1x    frame= 7142 fps=337 q=-0.0 size=N/A time=00:04:57.88 bitrate=N/A speed=14.1x    frame= 7314 fps=337 q=-0.0 size=N/A time=00:05:05.05 bitrate=N/A speed=14.1x    frame= 7501 fps=338 q=-0.0 size=N/A time=00:05:12.85 bitrate=N/A speed=14.1x    frame= 7680 fps=338 q=-0.0 size=N/A time=00:05:20.32 bitrate=N/A speed=14.1x    frame= 7859 fps=338 q=-0.0 size=N/A time=00:05:27.78 bitrate=N/A speed=14.1x    frame= 8044 fps=339 q=-0.0 size=N/A time=00:05:35.50 bitrate=N/A speed=14.1x    frame= 8237 fps=340 q=-0.0 size=N/A time=00:05:43.55 bitrate=N/A speed=14.2x    frame= 8421 fps=340 q=-0.0 size=N/A time=00:05:51.22 bitrate=N/A speed=14.2x    frame= 8617 fps=341 q=-0.0 size=N/A time=00:05:59.40 bitrate=N/A speed=14.2x    frame= 8803 fps=341 q=-0.0 size=N/A time=00:06:07.15 bitrate=N/A speed=14.2x    frame= 8997 fps=342 q=-0.0 size=N/A time=00:06:15.24 bitrate=N/A speed=14.3x    frame= 9192 fps=342 q=-0.0 size=N/A time=00:06:23.38 bitrate=N/A speed=14.3x    frame= 9379 fps=343 q=-0.0 size=N/A time=00:06:31.18 bitrate=N/A speed=14.3x    frame= 9572 fps=343 q=-0.0 size=N/A time=00:06:39.23 bitrate=N/A speed=14.3x    frame= 9754 fps=344 q=-0.0 size=N/A time=00:06:46.82 bitrate=N/A speed=14.3x    frame= 9946 fps=344 q=-0.0 size=N/A time=00:06:54.83 bitrate=N/A speed=14.3x    frame=10128 fps=344 q=-0.0 size=N/A time=00:07:02.42 bitrate=N/A speed=14.4x    frame=10317 fps=345 q=-0.0 size=N/A time=00:07:10.30 bitrate=N/A speed=14.4x    frame=10509 fps=345 q=-0.0 size=N/A time=00:07:18.31 bitrate=N/A speed=14.4x    frame=10676 fps=345 q=-0.0 size=N/A time=00:07:25.27 bitrate=N/A speed=14.4x    frame=10859 fps=345 q=-0.0 size=N/A time=00:07:32.91 bitrate=N/A speed=14.4x    frame=11043 fps=345 q=-0.0 size=N/A time=00:07:40.58 bitrate=N/A speed=14.4x    frame=11221 fps=345 q=-0.0 size=N/A time=00:07:48.00 bitrate=N/A speed=14.4x    frame=11413 fps=345 q=-0.0 size=N/A time=00:07:56.01 bitrate=N/A speed=14.4x    frame=11604 fps=346 q=-0.0 size=N/A time=00:08:03.98 bitrate=N/A speed=14.4x    frame=11791 fps=346 q=-0.0 size=N/A time=00:08:11.78 bitrate=N/A speed=14.4x    frame=11967 fps=346 q=-0.0 size=N/A time=00:08:19.12 bitrate=N/A speed=14.4x    frame=12155 fps=346 q=-0.0 size=N/A time=00:08:26.96 bitrate=N/A speed=14.4x    frame=12334 fps=346 q=-0.0 size=N/A time=00:08:34.43 bitrate=N/A speed=14.4x    frame=12522 fps=347 q=-0.0 size=N/A time=00:08:42.27 bitrate=N/A speed=14.5x    frame=12708 fps=347 q=-0.0 size=N/A time=00:08:50.02 bitrate=N/A speed=14.5x    frame=12901 fps=347 q=-0.0 size=N/A time=00:08:58.07 bitrate=N/A speed=14.5x    frame=13097 fps=348 q=-0.0 size=N/A time=00:09:06.25 bitrate=N/A speed=14.5x    frame=13291 fps=348 q=-0.0 size=N/A time=00:09:14.34 bitrate=N/A speed=14.5x    frame=13477 fps=348 q=-0.0 size=N/A time=00:09:22.10 bitrate=N/A speed=14.5x    frame=13655 fps=348 q=-0.0 size=N/A time=00:09:29.52 bitrate=N/A speed=14.5x    frame=13841 fps=348 q=-0.0 size=N/A time=00:09:37.28 bitrate=N/A speed=14.5x    frame=14020 fps=348 q=-0.0 size=N/A time=00:09:44.75 bitrate=N/A speed=14.5x    frame=14195 fps=348 q=-0.0 size=N/A time=00:09:52.04 bitrate=N/A speed=14.5x    frame=14374 fps=348 q=-0.0 size=N/A time=00:09:59.51 bitrate=N/A speed=14.5x    frame=14553 fps=348 q=-0.0 size=N/A time=00:10:06.98 bitrate=N/A speed=14.5x    frame=14747 fps=348 q=-0.0 size=N/A time=00:10:15.07 bitrate=N/A speed=14.5x    frame=14932 fps=348 q=-0.0 size=N/A time=00:10:22.78 bitrate=N/A speed=14.5x    frame=15109 fps=348 q=-0.0 size=N/A time=00:10:30.17 bitrate=N/A speed=14.5x    frame=15280 fps=348 q=-0.0 size=N/A time=00:10:37.30 bitrate=N/A speed=14.5x    frame=15475 fps=348 q=-0.0 size=N/A time=00:10:45.43 bitrate=N/A speed=14.5x    frame=15663 fps=349 q=-0.0 size=N/A time=00:10:53.27 bitrate=N/A speed=14.5x    frame=15862 fps=349 q=-0.0 size=N/A time=00:11:01.57 bitrate=N/A speed=14.6x    frame=16052 fps=349 q=-0.0 size=N/A time=00:11:09.50 bitrate=N/A speed=14.6x    frame=16245 fps=350 q=-0.0 size=N/A time=00:11:17.55 bitrate=N/A speed=14.6x    frame=16435 fps=350 q=-0.0 size=N/A time=00:11:25.47 bitrate=N/A speed=14.6x    frame=16624 fps=350 q=-0.0 size=N/A time=00:11:33.35 bitrate=N/A speed=14.6x    frame=16816 fps=350 q=-0.0 size=N/A time=00:11:41.36 bitrate=N/A speed=14.6x    frame=17007 fps=350 q=-0.0 size=N/A time=00:11:49.33 bitrate=N/A speed=14.6x    frame=17201 fps=351 q=-0.0 size=N/A time=00:11:57.42 bitrate=N/A speed=14.6x    frame=17392 fps=351 q=-0.0 size=N/A time=00:12:05.39 bitrate=N/A speed=14.6x    frame=17583 fps=351 q=-0.0 size=N/A time=00:12:13.35 bitrate=N/A speed=14.6x    frame=17766 fps=351 q=-0.0 size=N/A time=00:12:20.99 bitrate=N/A speed=14.6x    frame=17958 fps=351 q=-0.0 size=N/A time=00:12:28.99 bitrate=N/A speed=14.7x    frame=18140 fps=351 q=-0.0 size=N/A time=00:12:36.58 bitrate=N/A speed=14.7x    frame=18325 fps=351 q=-0.0 size=N/A time=00:12:44.30 bitrate=N/A speed=14.7x    frame=18515 fps=352 q=-0.0 size=N/A time=00:12:52.22 bitrate=N/A speed=14.7x    frame=18709 fps=352 q=-0.0 size=N/A time=00:13:00.32 bitrate=N/A speed=14.7x    frame=18905 fps=352 q=-0.0 size=N/A time=00:13:08.49 bitrate=N/A speed=14.7x    frame=19099 fps=352 q=-0.0 size=N/A time=00:13:16.58 bitrate=N/A speed=14.7x    frame=19282 fps=352 q=-0.0 size=N/A time=00:13:24.22 bitrate=N/A speed=14.7x    frame=19485 fps=353 q=-0.0 size=N/A time=00:13:32.68 bitrate=N/A speed=14.7x    frame=19668 fps=353 q=-0.0 size=N/A time=00:13:40.31 bitrate=N/A speed=14.7x    frame=19857 fps=353 q=-0.0 size=N/A time=00:13:48.20 bitrate=N/A speed=14.7x    frame=20058 fps=353 q=-0.0 size=N/A time=00:13:56.58 bitrate=N/A speed=14.7x    frame=20248 fps=353 q=-0.0 size=N/A time=00:14:04.51 bitrate=N/A speed=14.7x    frame=20433 fps=353 q=-0.0 size=N/A time=00:14:12.22 bitrate=N/A speed=14.7x    frame=20610 fps=353 q=-0.0 size=N/A time=00:14:19.60 bitrate=N/A speed=14.7x    frame=20798 fps=353 q=-0.0 size=N/A time=00:14:27.44 bitrate=N/A speed=14.7x    frame=20983 fps=353 q=-0.0 size=N/A time=00:14:35.16 bitrate=N/A speed=14.7x    frame=21174 fps=354 q=-0.0 size=N/A time=00:14:43.13 bitrate=N/A speed=14.8x    frame=21369 fps=354 q=-0.0 size=N/A time=00:14:51.26 bitrate=N/A speed=14.8x    frame=21556 fps=354 q=-0.0 size=N/A time=00:14:59.06 bitrate=N/A speed=14.8x    frame=21753 fps=354 q=-0.0 size=N/A time=00:15:07.28 bitrate=N/A speed=14.8x    frame=21949 fps=354 q=-0.0 size=N/A time=00:15:15.45 bitrate=N/A speed=14.8x    frame=22137 fps=354 q=-0.0 size=N/A time=00:15:23.29 bitrate=N/A speed=14.8x    frame=22331 fps=355 q=-0.0 size=N/A time=00:15:31.38 bitrate=N/A speed=14.8x    frame=22520 fps=355 q=-0.0 size=N/A time=00:15:39.27 bitrate=N/A speed=14.8x    frame=22715 fps=355 q=-0.0 size=N/A time=00:15:47.40 bitrate=N/A speed=14.8x    frame=22905 fps=355 q=-0.0 size=N/A time=00:15:55.32 bitrate=N/A speed=14.8x    frame=23093 fps=355 q=-0.0 size=N/A time=00:16:03.17 bitrate=N/A speed=14.8x    frame=23286 fps=355 q=-0.0 size=N/A time=00:16:11.22 bitrate=N/A speed=14.8x    frame=23468 fps=355 q=-0.0 size=N/A time=00:16:18.81 bitrate=N/A speed=14.8x    frame=23661 fps=355 q=-0.0 size=N/A time=00:16:26.86 bitrate=N/A speed=14.8x    frame=23853 fps=355 q=-0.0 size=N/A time=00:16:34.86 bitrate=N/A speed=14.8x    frame=24048 fps=356 q=-0.0 size=N/A time=00:16:43.00 bitrate=N/A speed=14.8x    frame=24233 fps=356 q=-0.0 size=N/A time=00:16:50.71 bitrate=N/A speed=14.8x    frame=24428 fps=356 q=-0.0 size=N/A time=00:16:58.85 bitrate=N/A speed=14.8x    frame=24618 fps=356 q=-0.0 size=N/A time=00:17:06.77 bitrate=N/A speed=14.8x    frame=24817 fps=356 q=-0.0 size=N/A time=00:17:15.07 bitrate=N/A speed=14.9x    frame=25008 fps=356 q=-0.0 size=N/A time=00:17:23.04 bitrate=N/A speed=14.9x    frame=25200 fps=356 q=-0.0 size=N/A time=00:17:31.05 bitrate=N/A speed=14.9x    frame=25402 fps=357 q=-0.0 size=N/A time=00:17:39.47 bitrate=N/A speed=14.9x    frame=25590 fps=357 q=-0.0 size=N/A time=00:17:47.31 bitrate=N/A speed=14.9x    frame=25774 fps=357 q=-0.0 size=N/A time=00:17:54.99 bitrate=N/A speed=14.9x    frame=25970 fps=357 q=-0.0 size=N/A time=00:18:03.16 bitrate=N/A speed=14.9x    frame=26157 fps=357 q=-0.0 size=N/A time=00:18:10.96 bitrate=N/A speed=14.9x    frame=26349 fps=357 q=-0.0 size=N/A time=00:18:18.97 bitrate=N/A speed=14.9x    frame=26535 fps=357 q=-0.0 size=N/A time=00:18:26.73 bitrate=N/A speed=14.9x    frame=26735 fps=357 q=-0.0 size=N/A time=00:18:35.07 bitrate=N/A speed=14.9x    frame=26915 fps=357 q=-0.0 size=N/A time=00:18:42.57 bitrate=N/A speed=14.9x    frame=27090 fps=357 q=-0.0 size=N/A time=00:18:49.87 bitrate=N/A speed=14.9x    frame=27275 fps=357 q=-0.0 size=N/A time=00:18:57.59 bitrate=N/A speed=14.9x    frame=27453 fps=357 q=-0.0 size=N/A time=00:19:05.01 bitrate=N/A speed=14.9x    frame=27645 fps=357 q=-0.0 size=N/A time=00:19:13.02 bitrate=N/A speed=14.9x    frame=27832 fps=357 q=-0.0 size=N/A time=00:19:20.82 bitrate=N/A speed=14.9x    frame=28019 fps=357 q=-0.0 size=N/A time=00:19:28.62 bitrate=N/A speed=14.9x    frame=28208 fps=357 q=-0.0 size=N/A time=00:19:36.50 bitrate=N/A speed=14.9x    frame=28399 fps=357 q=-0.0 size=N/A time=00:19:44.47 bitrate=N/A speed=14.9x    frame=28581 fps=357 q=-0.0 size=N/A time=00:19:52.06 bitrate=N/A speed=14.9x    frame=28766 fps=357 q=-0.0 size=N/A time=00:19:59.78 bitrate=N/A speed=14.9x    frame=28942 fps=357 q=-0.0 size=N/A time=00:20:07.12 bitrate=N/A speed=14.9x    frame=29111 fps=357 q=-0.0 size=N/A time=00:20:14.17 bitrate=N/A speed=14.9x    frame=29293 fps=357 q=-0.0 size=N/A time=00:20:21.76 bitrate=N/A speed=14.9x    frame=29464 fps=357 q=-0.0 size=N/A time=00:20:28.89 bitrate=N/A speed=14.9x    frame=29633 fps=357 q=-0.0 size=N/A time=00:20:35.94 bitrate=N/A speed=14.9x    frame=29810 fps=357 q=-0.0 size=N/A time=00:20:43.32 bitrate=N/A speed=14.9x    frame=29983 fps=356 q=-0.0 size=N/A time=00:20:50.54 bitrate=N/A speed=14.9x    frame=30153 fps=356 q=-0.0 size=N/A time=00:20:57.63 bitrate=N/A speed=14.9x    frame=30336 fps=356 q=-0.0 size=N/A time=00:21:05.26 bitrate=N/A speed=14.9x    frame=30533 fps=356 q=-0.0 size=N/A time=00:21:13.48 bitrate=N/A speed=14.9x    frame=30717 fps=356 q=-0.0 size=N/A time=00:21:21.15 bitrate=N/A speed=14.9x    frame=30906 fps=356 q=-0.0 size=N/A time=00:21:29.03 bitrate=N/A speed=14.9x    frame=31100 fps=357 q=-0.0 size=N/A time=00:21:37.12 bitrate=N/A speed=14.9x    frame=31285 fps=357 q=-0.0 size=N/A time=00:21:44.84 bitrate=N/A speed=14.9x    frame=31472 fps=357 q=-0.0 size=N/A time=00:21:52.64 bitrate=N/A speed=14.9x    frame=31664 fps=357 q=-0.0 size=N/A time=00:22:00.65 bitrate=N/A speed=14.9x    frame=31837 fps=357 q=-0.0 size=N/A time=00:22:07.86 bitrate=N/A speed=14.9x    frame=32009 fps=356 q=-0.0 size=N/A time=00:22:15.04 bitrate=N/A speed=14.9x    frame=32198 fps=356 q=-0.0 size=N/A time=00:22:22.92 bitrate=N/A speed=14.9x    frame=32375 fps=356 q=-0.0 size=N/A time=00:22:30.30 bitrate=N/A speed=14.9x    frame=32557 fps=356 q=-0.0 size=N/A time=00:22:37.89 bitrate=N/A speed=14.9x    frame=32706 fps=356 q=-0.0 size=N/A time=00:22:44.11 bitrate=N/A speed=14.8x    frame=32850 fps=356 q=-0.0 size=N/A time=00:22:50.11 bitrate=N/A speed=14.8x    frame=33034 fps=356 q=-0.0 size=N/A time=00:22:57.79 bitrate=N/A speed=14.8x    frame=33203 fps=355 q=-0.0 size=N/A time=00:23:04.84 bitrate=N/A speed=14.8x    frame=33377 fps=355 q=-0.0 size=N/A time=00:23:12.09 bitrate=N/A speed=14.8x    frame=33538 fps=355 q=-0.0 size=N/A time=00:23:18.81 bitrate=N/A speed=14.8x    frame=33680 fps=355 q=-0.0 size=N/A time=00:23:24.73 bitrate=N/A speed=14.8x    frame=33808 fps=354 q=-0.0 size=N/A time=00:23:30.07 bitrate=N/A speed=14.8x    frame=33943 fps=354 q=-0.0 size=N/A time=00:23:35.70 bitrate=N/A speed=14.7x    frame=34111 fps=353 q=-0.0 size=N/A time=00:23:42.71 bitrate=N/A speed=14.7x    frame=34259 fps=353 q=-0.0 size=N/A time=00:23:48.88 bitrate=N/A speed=14.7x    frame=34385 fps=353 q=-0.0 size=N/A time=00:23:54.14 bitrate=N/A speed=14.7x    frame=34546 fps=352 q=-0.0 size=N/A time=00:24:00.85 bitrate=N/A speed=14.7x    [Parsed_psnr_16 @ 0000020277c969c0] PSNR y:48.726669 u:50.249657 v:50.272789 average:49.180485 min:37.917962 max:inf
[out#0/null @ 000002026a728e80] video:14903KiB audio:271276KiB subtitle:0KiB other streams:0KiB global headers:0KiB muxing overhead: unknown
frame=34683 fps=352 q=-0.0 Lsize=N/A time=00:24:06.57 bitrate=N/A speed=14.7x    
